<svg version="1.1" id="Layer_1" xmlns="http://www.w3.org/2000/svg" x="0" y="0" viewBox="0 0 831.4 100" xml:space="preserve"><style type="text/css">.st0{fill:#1bb0f6}</style><g><g><path class="st0" d="M452.5 10.5c0-3.1 2.5-5.5 5.5-5.5s5.5 2.4 5.5 5.5c0 3-2.5 5.5-5.5 5.5-3 .1-5.5-2.4-5.5-5.5zm1.3 19.2c0-2.8 1.8-4.5 4.2-4.5 2.4 0 4.2 1.7 4.2 4.5v40.1c0 2.8-1.8 4.5-4.2 4.5-2.4 0-4.2-1.7-4.2-4.5V29.7zM475.3 29.7c0-2.8 1.8-4.5 4.2-4.5 2.4 0 4.2 1.7 4.2 4.5v1.4h.1c2.3-3.7 6.9-6.5 13.5-6.5 10.4 0 16.7 7.1 16.7 18.1v27.1c0 2.8-1.8 4.5-4.2 4.5-2.4 0-4.2-1.7-4.2-4.5V44.7c0-7.7-3.5-12.3-10.7-12.3-6.5 0-11 4.6-11 11.8v25.6c0 2.8-1.8 4.5-4.2 4.5-2.4 0-4.2-1.7-4.2-4.5V29.7zM526 62c-.9-2.9-1.5-6.8-1.5-12.3 0-5.3.6-9.2 1.5-12.2 2.7-8.3 9.7-13 19-13 7.2 0 12.4 3.1 15.4 7 .8 1.1 1.2 2 1.2 3.1 0 2.1-1.6 3.7-3.7 3.7-1.5 0-2.6-.8-3.7-2-2.2-2.4-4.8-4-9.1-4-5.2 0-9.1 2.5-10.7 7.5-.8 2.5-1.1 5.5-1.1 9.7 0 4.3.3 7.3 1.1 9.8 1.6 5 5.5 7.5 10.7 7.5 4.3 0 6.9-1.6 9.1-4 1.1-1.2 2.2-2 3.7-2 2.1 0 3.7 1.6 3.7 3.7 0 1.1-.4 2-1.2 3.1-3 3.9-8.1 7-15.4 7-9.3.3-16.3-4.3-19-12.6zM609.3 69.8c0 2.8-1.8 4.5-4.2 4.5-2.4 0-4.2-1.7-4.2-4.5v-1.4h-.1c-2.3 3.7-6.7 6.5-13.3 6.5-10.4 0-16.6-7.1-16.6-18.1V29.7c0-2.8 1.8-4.5 4.2-4.5 2.4 0 4.2 1.7 4.2 4.5v25.1c0 7.7 3.4 12.3 10.6 12.3 6.5 0 10.8-4.6 10.8-11.8V29.7c0-2.8 1.8-4.5 4.2-4.5 2.4 0 4.2 1.7 4.2 4.5v40.1zM622.6 69.8V9.5c0-2.8 1.8-4.5 4.2-4.5 2.4 0 4.2 1.7 4.2 4.5V31h.1c2.2-3.7 6.4-6.4 13.7-6.4 8.1 0 14.1 4.5 16.6 12.1 1.2 3.8 1.7 7.6 1.7 13.1s-.5 9.3-1.7 13.2c-2.5 7.5-8.4 12.1-16.6 12.1-7.1 0-11.4-2.6-13.7-6.4h-.1V70c0 2.8-1.8 4.5-4.2 4.5-2.4-.2-4.2-1.9-4.2-4.7zm30.7-10.2c.9-2.6 1.1-5.6 1.1-9.8 0-4.1-.2-7.1-1.1-9.7-1.6-4.8-5.2-7.5-10.5-7.5-5.4 0-9 2.7-10.6 7.5-.9 2.6-1.1 5.6-1.1 9.7 0 4.2.2 7.2 1.1 9.8 1.6 4.8 5.2 7.5 10.6 7.5 5.3 0 8.9-2.7 10.5-7.5zM713.4 70.3c0 2.3-1.8 4-4.3 4-1.5 0-2.7-.7-3.7-2.1l-1.9-3h-.1c-3.2 3.6-7.7 5.7-14.8 5.7-10.7 0-17-5.3-17-14.5 0-9.9 6.8-14.9 18.8-14.9h10.9c.4 0 .6-.2.6-.6v-2.3c0-6.7-3.1-10.5-11.6-10.5-3.7 0-7.5 1.2-9.8 2.4-.8.4-1.7.7-2.4.7-2.2 0-3.6-1.4-3.6-3.6 0-1.3.6-2.6 2-3.4 3-2 8-3.6 14.7-3.6 12.9 0 18.9 6.1 18.9 18v17.3c0 2.5.2 3.5.9 4.9l1.7 3.1c.4.7.7 1.6.7 2.4zm-11.4-12V53c0-.4-.2-.6-.6-.6h-9.6c-8.2 0-12 2.4-12 7.8 0 5 3.6 7.5 10 7.5 7.4 0 12.2-3.5 12.2-9.4zM737.7 74.3c-9.8 0-13.5-4.1-13.5-14.2v-27c0-.4-.2-.6-.6-.6h-2.7c-2.3 0-3.6-1.4-3.6-3.4s1.3-3.4 3.6-3.4h2.7c.4 0 .6-.2.6-.6V14.6c0-2.8 1.8-4.5 4.2-4.5 2.4 0 4.2 1.7 4.2 4.5v10.5c0 .4.2.6.6.6h6.3c2.3 0 3.6 1.4 3.6 3.4s-1.3 3.4-3.6 3.4h-6.3c-.4 0-.6.2-.6.6v26.7c0 5.1 1.3 6.6 6.4 6.6 2.6 0 4.1 1.6 4.1 3.9s-1.5 3.9-4.5 3.9h-.9zM750.3 62c-1.1-3.3-1.6-6.6-1.6-12.3 0-5.5.5-8.8 1.6-12.2 2.6-8.2 9.6-13 19-13 9.3 0 16.4 4.7 19 13 1.1 3.3 1.6 6.6 1.6 12.2s-.5 8.9-1.6 12.3c-2.6 8.1-9.6 13-19 13-9.3-.1-16.3-4.9-19-13zm29.9-2.4c.8-2.6 1.1-5.2 1.1-9.8 0-4.6-.3-7.1-1.1-9.7-1.6-4.8-5.5-7.5-10.8-7.5s-9.2 2.7-10.8 7.5c-.8 2.6-1.1 5.1-1.1 9.7s.3 7.2 1.1 9.8c1.6 4.8 5.5 7.5 10.8 7.5s9.2-2.7 10.8-7.5zM800.9 69.8V29.7c0-2.8 1.8-4.5 4.2-4.5 2.4 0 4.2 1.7 4.2 4.5v2.2h.1c2-4.3 6.4-7.3 12.4-7.3 3.3 0 5.5.8 7.1 1.7 1.7.9 2.4 2.2 2.4 3.6 0 2.4-1.7 4.2-4.2 4.2-.6 0-1.4-.2-2.1-.5-1.8-.7-3.5-1.2-5.5-1.2-7.2 0-10.1 6-10.1 14.1v23.3c0 2.8-1.8 4.5-4.2 4.5-2.5 0-4.3-1.7-4.3-4.5z"/></g><path class="st0" d="M370.8 50c0-15.8 12-27 28-27s28 11.1 28 27-12 27-28 27-28-11.3-28-27zm40.2 0c0-7.4-4.7-12.8-12-12.8s-12 5.4-12 12.8 4.7 12.8 12 12.8 12-5.3 12-12.8zm-50.8-12.5c1.1 2.1 1.5 4.4 1.5 6.8 0 5.7-3 11-7.8 15.1 6.6 3.2 10.5 10.8 10.5 18.1 0 13.6-11 22.6-27.7 22.6s-27.7-9-27.7-22.7c-.2-7.5 3.9-14.5 10.5-18.1-5-4.1-7.8-9.3-7.8-15.1 0-11.9 9.3-20.6 24.1-20.6 8.7 0 11.3 1.5 16.3 1.5 3.3.2 6.8-.8 9.6-2.6 1.1-.6 2.1-1.1 3.3-1.1 2 0 3 2 3 4.4.5 5.4-2.8 10-7.8 11.7zM348.9 77c0-6-4.7-10.2-12-10.2s-12 4.1-12 10.2c0 5.7 5.1 10.2 12 10.2s12-4.5 12-10.2zm-21.8-31.8c.2 5.3 4.7 9.5 10.1 9.3 5.1-.2 9-4.2 9.3-9.3 0-5.4-3.9-9.2-9.6-9.2s-9.8 3.6-9.8 9.2zm-25.3 5.9v18.8c0 3.6-1.4 5.1-5.3 5.1h-5.3c-3.9 0-5.3-1.5-5.3-5.1V51.5c0-4.7-.8-8-2.4-10.1-2-2.4-5-3.6-8-3.5-3.2-.2-6.2 1.2-8.3 3.5-1.8 2.1-3 5.4-3 9.9v18.4c0 3.8-1.7 5.1-5.3 5.1h-5.3c-3.6 0-5.3-1.4-5.3-5.1V27.6c0-2.4 1.2-3.5 3-3.5 2.7 0 6.5 2.3 9.3 6.6 4.4-4.8 10.5-7.5 17-7.5 7.7 0 13.9 2.7 17.9 7.2 4.3 4.5 6.3 10.7 6.3 20.7zM219.6 8.6c0-4.8 4.1-8.6 8.7-8.6h.3c4.7.3 8.3 4.4 8 9s-4.4 8.3-9 8c-4.6-.1-8-3.9-8-8.4zm1 61.3V30.3c0-3.6 1.4-5.3 5.3-5.3h5.3c3.9 0 5.3 1.5 5.3 5.3v39.6c0 3.6-1.4 5.1-5.3 5.1h-5.3c-3.9 0-5.3-1.5-5.3-5.1zm-27.8 0V20.2c0-12.5 6.9-19.6 12.8-19.6 1.8 0 3 1.2 3 3.5v65.8c0 3.8-1.5 5.1-5.3 5.1H198c-3.6 0-5.2-1.4-5.2-5.1zM127.7 50c0-15.8 12-27 28-27s28 11.1 28 27-12 27-28 27-28-11.3-28-27zm40.1 0c0-7.4-4.7-12.8-12-12.8-7.4 0-12 5.4-12 12.8s4.7 12.8 12 12.8 12-5.3 12-12.8zm-48.2-19.7v42.2c0 2.4-1.2 3.5-3 3.5-2.7 0-6.5-2.3-9.2-6.5-4.2 4.8-10.2 7.5-16.7 7.4-6 .2-11.7-2-16.3-6-4.7-4.5-7.2-11.4-7.2-21.4V30.3c0-3.6 1.4-5.3 5.3-5.3h5.3c3.9 0 5.3 1.5 5.3 5.3V48c0 6 1.1 9.2 3 11.3 1.8 1.8 4.5 2.9 7.1 2.7 2.9 0 5.6-1.1 7.5-3.2s3-5.4 3-10.5v-18c0-3.8 1.7-5.3 5.3-5.3h5.3c3.6 0 5.3 1.5 5.3 5.3zM56.3 4.1v68.4c0 2.4-1.2 3.5-3 3.5-2.7 0-6.5-2.3-9.2-6.3C40.8 73.5 34 77 26.2 77 10.5 77 0 65.5 0 50s10.8-27 26.2-27c5.1 0 10.1 1.5 14.5 4.4v-7.2C40.7 7.7 47.8.6 53.5.6c1.8 0 2.8 1.2 2.8 3.5zM40.7 50c0-7.7-5.4-12.8-12.2-12.8S16.1 42.3 16.1 50s5.4 12.8 12.3 12.8 12.3-5 12.3-12.8z"/></g></svg>